<?xml version="1.0" encoding="utf-8"?>
<!-- Generator: Adobe Illustrator 16.0.0, SVG Export Plug-In . SVG Version: 6.00 Build 0)  -->
<!DOCTYPE svg PUBLIC "-//W3C//DTD SVG 1.1//EN" "http://www.w3.org/Graphics/SVG/1.1/DTD/svg11.dtd">
<svg version="1.1" id="Layer_1" xmlns="http://www.w3.org/2000/svg" xmlns:xlink="http://www.w3.org/1999/xlink" x="0px" y="0px"
	 width="128px" height="128px" viewBox="0 0 128 128" enable-background="new 0 0 128 128" xml:space="preserve">
<polygon fill="#99332E" points="42.259,101.459 23.522,69.006 42.259,36.554 79.732,36.554 98.469,69.006 79.732,101.459 "/>
<polygon fill="#CC5752" points="45.264,96.452 26.527,64 45.264,31.547 82.736,31.547 101.473,64 82.736,96.452 "/>
<polygon fill="#A85655" points="54.583,80.312 45.166,64 54.583,47.689 73.417,47.689 82.834,64 73.417,80.312 "/>
<polygon fill="#412324" points="54.583,80.312 45.166,64 52.427,51.424 71.063,51.424 80.491,68.058 73.417,80.312 "/>
<polygon fill="#783F40" stroke="#8A4849" stroke-width="0.1" stroke-miterlimit="10" points="71.063,51.424 73.417,47.689 
	82.834,64 80.491,68.058 "/>
<polyline fill="#672321" points="45.264,96.452 42.259,101.459 79.732,101.459 82.736,96.452 "/>
</svg>
